<svg width="13" height="15" viewBox="0 0 13 15" fill="none" xmlns="http://www.w3.org/2000/svg">
<path d="M11.0859 14.5H5.08594C4.82072 14.5 4.56637 14.3946 4.37883 14.2071C4.19129 14.0196 4.08594 13.7652 4.08594 13.5V12H5.08594V13.5H11.0859V1.5H5.08594V3H4.08594V1.5C4.08594 1.23478 4.19129 0.98043 4.37883 0.792893C4.56637 0.605357 4.82072 0.5 5.08594 0.5H11.0859C11.3512 0.5 11.6055 0.605357 11.793 0.792893C11.9806 0.98043 12.0859 1.23478 12.0859 1.5V13.5C12.0859 13.7652 11.9806 14.0196 11.793 14.2071C11.6055 14.3946 11.3512 14.5 11.0859 14.5Z" fill="#3147F5"/>
<path d="M5.38094 9.795L7.17094 8H0.0859375V7H7.17094L5.38094 5.205L6.08594 4.5L9.08594 7.5L6.08594 10.5L5.38094 9.795Z" fill="#3147F5"/>
</svg>
